<svg xmlns="http://www.w3.org/2000/svg" xmlns:xlink="http://www.w3.org/1999/xlink" width="1920" height="1080" viewBox="0 0 1920 1080">
  <defs>
    <clipPath id="clip-_3">
      <rect width="1920" height="1080"/>
    </clipPath>
  </defs>
  <g id="_3" data-name="3" clip-path="url(#clip-_3)">
    <rect width="1920" height="1080" fill="#fff"/>
    <g id="Group_322" data-name="Group 322">
      <g id="Group_320" data-name="Group 320">
        <g id="Group_193" data-name="Group 193" transform="matrix(0.985, 0.174, -0.174, 0.985, -305.001, 391.299)" opacity="0.094">
          <path id="Path_4" data-name="Path 4" d="M46.944,451.109C-127.031,253,238.566,134.4,238.566,134.4S394.6-68.109,563.521,24.034s462.9,238.1,309.4,418.974-128.81,299.631-339.6,354.12S220.918,649.214,46.944,451.109Z" transform="matrix(0.966, 0.259, -0.259, 0.966, -187.303, -528.473)" fill="#d9b590"/>
          <g id="Group_171" data-name="Group 171" transform="matrix(0.978, -0.208, 0.208, 0.978, 1365.843, -404.373)">
            <path id="Path_13" data-name="Path 13" d="M102,362.668C-202.409-205.85,279.754,67.452,279.754,67.452s163.1-85.225,377,34,584.087,313.868,428.074,441.624-26.142,201.56-351.821,241.571S406.407,931.186,102,362.668Z" transform="matrix(0.946, -0.326, 0.326, 0.946, 473.31, 435.724)" fill="#325858"/>
          </g>
        </g>
        <text id="The_Challenge" data-name="The Challenge" transform="translate(172 272)" fill="#255959" font-size="44" font-family="OpenSans-Bold, Open Sans" font-weight="700"><tspan x="0" y="0">The Challenge</tspan></text>
        <text id="The_Idea" data-name="The Idea" transform="translate(1034 438)" fill="#255959" font-size="44" font-family="OpenSans-Bold, Open Sans" font-weight="700"><tspan x="0" y="0">The Idea</tspan></text>
        <text id="How_to_design_a_non-distractive_portfolio_website_in_combination_with_eye-catching_3D_rendering_products_Plus_to_define_a_brand_voice_with_a_call_to_action_message_to_the_customers_" data-name="How to design a non-distractive portfolio website
in combination with eye-catching 3D rendering products? 

Plus, to define a brand voice with a call to action message to the customers?" transform="translate(172 345)" font-size="30" font-family="OpenSans, Open Sans"><tspan x="0" y="32">How to design a non-distractive portfolio website</tspan><tspan x="0" y="73">in combination with eye-catching 3D rendering </tspan><tspan x="0" y="114">products? </tspan><tspan x="0" y="155"></tspan><tspan x="0" y="196">Plus, to define a brand voice with a call to action </tspan><tspan x="0" y="237">message to the customers?</tspan></text>
        <text id="By_redesigning_and_rebranding_the_website_in_a_minimalistic_and_modern_way_to_help_clients_learn_more_about_the_Image_Factory_business_and_the_company_s_services._Also_to_enhance_the_brand_tone_and_voice_to_make_a_quote_request_and_contact_forms_fu" data-name="By redesigning and rebranding the website in a 
minimalistic and modern way to help clients learn more 
about the Image Factory business and the company’s 
services.  

Also, to enhance the brand tone and voice to make a 
quote request and contact forms fu" transform="translate(1034 543)" font-size="30" font-family="OpenSans, Open Sans"><tspan x="0" y="0">By redesigning and rebranding the website in a </tspan><tspan x="0" y="41">minimalistic and modern way to help clients learn more </tspan><tspan x="0" y="82">about the Image Factory business and the company’s </tspan><tspan x="0" y="123" xml:space="preserve">services.  </tspan><tspan x="0" y="164"></tspan><tspan x="0" y="205">Also, to enhance the brand tone and voice to make a </tspan><tspan x="0" y="246">quote request and contact forms functional, transparent, </tspan><tspan x="0" y="287">and trustworthy.</tspan></text>
        <g id="Group_212" data-name="Group 212" transform="translate(1709.504 1812.924) rotate(-103)">
          <line id="Line_6" data-name="Line 6" y1="33.473" x2="23.431" transform="translate(1361.5 266.5)" fill="none" stroke="#d9b590" stroke-linecap="round" stroke-width="4"/>
          <line id="Line_7" data-name="Line 7" y1="15.063" x2="40.167" transform="translate(1377.678 304.436)" fill="none" stroke="#d9b590" stroke-linecap="round" stroke-width="4"/>
          <line id="Line_8" data-name="Line 8" x2="42.399" y2="2.789" transform="translate(1381.305 342.929)" fill="none" stroke="#d9b590" stroke-linecap="round" stroke-width="4"/>
        </g>
        <path id="Icon_awesome-lightbulb" data-name="Icon awesome-lightbulb" d="M9.006,42.6a3,3,0,0,0,.5,1.658l1.6,2.408A3,3,0,0,0,13.608,48h5.785a3,3,0,0,0,2.5-1.339l1.6-2.408A3,3,0,0,0,24,42.6L24,39H9l0,3.6ZM0,16.5A16.408,16.408,0,0,0,4.084,27.354a26.942,26.942,0,0,1,4.895,8.573c0,.024.007.049.01.073H24.011c0-.024.007-.048.01-.073a26.942,26.942,0,0,1,4.895-8.573A16.5,16.5,0,1,0,0,16.5ZM16.5,9A7.509,7.509,0,0,0,9,16.5a1.5,1.5,0,0,1-3,0A10.512,10.512,0,0,1,16.5,6a1.5,1.5,0,0,1,0,3Z" transform="matrix(0.961, 0.276, -0.276, 0.961, 1736.571, 438.822)" fill="#d9b590"/>
        <path id="Icon_awesome-question" data-name="Icon awesome-question" d="M17.677,0C10.494,0,5.841,2.943,2.188,8.192a2.162,2.162,0,0,0,.466,2.959l3.882,2.944a2.16,2.16,0,0,0,2.993-.373c2.254-2.824,3.927-4.45,7.448-4.45,2.769,0,6.193,1.782,6.193,4.467,0,2.03-1.675,3.072-4.409,4.6-3.188,1.787-7.407,4.012-7.407,9.576V28.8a2.16,2.16,0,0,0,2.16,2.16h6.522A2.16,2.16,0,0,0,22.2,28.8v-.52c0-3.857,11.274-4.018,11.274-14.456C33.47,5.963,25.316,0,17.677,0Zm-.9,33.61a6.234,6.234,0,1,0,6.234,6.234A6.241,6.241,0,0,0,16.776,33.61Z" transform="matrix(0.995, 0.105, -0.105, 0.995, 592.159, 143.617)" fill="#d9b590"/>
        <path id="Icon_awesome-question-2" data-name="Icon awesome-question" d="M13.7,0A13.069,13.069,0,0,0,2.091,6.14,1.62,1.62,0,0,0,2.44,8.357l2.91,2.206a1.619,1.619,0,0,0,2.243-.28c1.69-2.117,2.943-3.335,5.582-3.335,2.075,0,4.642,1.335,4.642,3.348,0,1.521-1.256,2.3-3.3,3.451-2.389,1.34-5.551,3.007-5.551,7.177v.66A1.619,1.619,0,0,0,10.58,23.2h4.888a1.619,1.619,0,0,0,1.619-1.619v-.389c0-2.891,8.449-3.011,8.449-10.834C25.536,4.469,19.425,0,13.7,0Zm-.676,25.19A4.672,4.672,0,1,0,17.7,29.862,4.678,4.678,0,0,0,13.024,25.19Z" transform="matrix(0.951, -0.309, 0.309, 0.951, 557.189, 210.802)" fill="#d9b590"/>
        <path id="Icon_awesome-question-3" data-name="Icon awesome-question" d="M11.414,0A10.558,10.558,0,0,0,2.035,4.96a1.309,1.309,0,0,0,.282,1.791L4.668,8.534A1.308,1.308,0,0,0,6.48,8.308C7.845,6.6,8.857,5.613,10.99,5.613c1.676,0,3.75,1.079,3.75,2.7,0,1.229-1.014,1.86-2.67,2.788-1.93,1.082-4.485,2.429-4.485,5.8v.533a1.308,1.308,0,0,0,1.308,1.308h3.949a1.308,1.308,0,0,0,1.308-1.308v-.315c0-2.336,6.826-2.433,6.826-8.753C20.976,3.61,16.039,0,11.414,0Zm-.546,20.351a3.775,3.775,0,1,0,3.775,3.775A3.779,3.779,0,0,0,10.868,20.351Z" transform="matrix(0.995, 0.105, -0.105, 0.995, 613.658, 222.812)" fill="#d9b590"/>
        <path id="Path_14" data-name="Path 14" d="M127.715,661.745C-354.379-289.769,683.9,95.054,683.9,95.054s367.1-192.674,784.075-29.1,1141.864,425.589,777.815,693.2-111.278,369.483-807.973,519.649S609.808,1613.259,127.715,661.745Z" transform="translate(2142.234 1046.123) rotate(171)" fill="none" stroke="#255959" stroke-width="2"/>
      </g>
      <rect id="Rectangle_63" data-name="Rectangle 63" width="491" height="117" transform="translate(0 963)" fill="#c1cccc"/>
    </g>
  </g>
</svg>
