<svg xmlns="http://www.w3.org/2000/svg" xmlns:xlink="http://www.w3.org/1999/xlink" width="1920" height="1080" viewBox="0 0 1920 1080">
  <defs>
    <clipPath id="clip-My_process">
      <rect width="1920" height="1080"/>
    </clipPath>
  </defs>
  <g id="My_process" data-name="My process" clip-path="url(#clip-My_process)">
    <rect width="1920" height="1080" fill="#fff"/>
    <g id="Group_321" data-name="Group 321">
      <rect id="Rectangle_64" data-name="Rectangle 64" width="1457" height="1080" transform="translate(463)" fill="#fff"/>
      <rect id="Rectangle_63" data-name="Rectangle 63" width="491" height="1080" fill="#c1cccc"/>
      <path id="Path_4" data-name="Path 4" d="M44.027,451.109C-119.139,253,223.747,134.4,223.747,134.4S370.09-68.109,528.515,24.034s434.149,238.1,290.179,418.974-120.808,299.631-318.5,354.12S207.194,649.214,44.027,451.109Z" transform="translate(1920.315 223.199) rotate(25)" fill="#d9b590" opacity="0.301"/>
      <text id="My_Design_Process_" data-name="My Design 
Process " transform="translate(63 240)" fill="#255959" font-size="68" font-family="OpenSans-Bold, Open Sans" font-weight="700"><tspan x="0" y="0">My Design </tspan><tspan x="0" y="93">Process </tspan></text>
      <g id="Group_300" data-name="Group 300" transform="translate(239 -53)">
        <g id="Group_286" data-name="Group 286" transform="translate(449 247)">
          <circle id="Ellipse_22" data-name="Ellipse 22" cx="61" cy="61" r="61" fill="#255959"/>
          <path id="Icon_awesome-handshake" data-name="Icon awesome-handshake" d="M56.465,4.5H45.307A4.155,4.155,0,0,0,42.5,5.591L29.733,17.282c-.013.013-.026.039-.039.052a5.167,5.167,0,0,0-.273,7.274,5.418,5.418,0,0,0,7.287.351c.013-.013.039-.013.052-.026l10.379-9.508a2.078,2.078,0,0,1,2.806,3.066l-3.39,3.1L65.467,36.948a9.359,9.359,0,0,1,1.026,1V12.813L59.4,5.721A4.127,4.127,0,0,0,56.465,4.5Zm14.2,8.339V41.923a4.152,4.152,0,0,0,4.157,4.157h8.313V12.839ZM76.9,41.923a2.078,2.078,0,1,1,2.078-2.078A2.084,2.084,0,0,1,76.9,41.923ZM0,46.066H8.313A4.152,4.152,0,0,0,12.47,41.91V12.839H0Zm6.235-8.3a2.078,2.078,0,1,1-2.078,2.078A2.084,2.084,0,0,1,6.235,37.766Zm56.621,2.416L43.463,24.439l-3.9,3.572A9.35,9.35,0,1,1,26.927,14.229L37.553,4.5H26.667a4.149,4.149,0,0,0-2.936,1.221l-7.105,7.092V41.9H19L30.759,52.535A8.312,8.312,0,0,0,42.45,51.327l.026-.026L44.8,53.314a4.827,4.827,0,0,0,6.793-.7L55.673,47.6l.7.572a4.15,4.15,0,0,0,5.845-.611l1.234-1.52a4.164,4.164,0,0,0-.6-5.858Z" transform="translate(19.204 31.321)" fill="#f7f7f7"/>
          <text id="Client_Meeting_" data-name="Client
Meeting " transform="translate(61 154)" font-size="21" font-family="SF Compact" font-weight="600" letter-spacing="0.1em"><tspan x="-32.93" y="0">Client</tspan><tspan x="-48.022" y="23">Meeting </tspan></text>
        </g>
        <g id="Group_289" data-name="Group 289" transform="translate(1328.449 247)">
          <circle id="Ellipse_22-2" data-name="Ellipse 22" cx="61" cy="61" r="61" transform="translate(-0.449)" fill="#255959"/>
          <text id="Ideation" transform="translate(61.551 163)" font-size="21" font-family="SF Compact" font-weight="600" letter-spacing="0.1em"><tspan x="-46.258" y="0">Ideation</tspan></text>
          <path id="Icon_awesome-lightbulb" data-name="Icon awesome-lightbulb" d="M12.584,59.52a4.194,4.194,0,0,0,.7,2.317L15.525,65.2a4.191,4.191,0,0,0,3.49,1.871H27.1a4.191,4.191,0,0,0,3.49-1.871l2.239-3.365a4.191,4.191,0,0,0,.7-2.317l.005-5.024H12.577ZM0,23.056A22.928,22.928,0,0,0,5.706,38.224a37.647,37.647,0,0,1,6.84,11.98c.005.034.009.068.014.1H33.552c.005-.034.009-.067.014-.1a37.647,37.647,0,0,1,6.84-11.98A23.051,23.051,0,1,0,0,23.056Zm23.056-10.48a10.492,10.492,0,0,0-10.48,10.48,2.1,2.1,0,0,1-4.192,0A14.688,14.688,0,0,1,23.056,8.384a2.1,2.1,0,1,1,0,4.192Z" transform="translate(38.111 27.233)" fill="#f7f7f7"/>
        </g>
        <g id="Group_285" data-name="Group 285" transform="translate(864.977 246)">
          <text id="Website_Analysis_" data-name="Website 
Analysis " transform="translate(61.023 155)" font-size="21" font-family="SF Compact" font-weight="600" letter-spacing="0.1em"><tspan x="-47.474" y="0">Website </tspan><tspan x="-50.072" y="23">Analysis </tspan></text>
          <g id="Group_287" data-name="Group 287" transform="translate(0 0)">
            <circle id="Ellipse_23" data-name="Ellipse 23" cx="61" cy="61" r="61" transform="translate(0.023)" fill="#255959"/>
            <path id="Icon_open-magnifying-glass" data-name="Icon open-magnifying-glass" d="M26.878.032a26.878,26.878,0,1,0,0,53.757A26.566,26.566,0,0,0,39.627,50.64a7.68,7.68,0,0,0,1,1l7.68,7.68A7.833,7.833,0,1,0,59.363,48.259l-7.68-7.68a7.68,7.68,0,0,0-1.229-1,26.517,26.517,0,0,0,3.379-12.748A26.908,26.908,0,0,0,26.955-.045Zm0,7.68a19.108,19.108,0,0,1,19.2,19.2,19.257,19.257,0,0,1-5.069,13.209l-.23.23a7.679,7.679,0,0,0-1,1A19.217,19.217,0,0,1,26.8,46.186a19.2,19.2,0,1,1,0-38.4Z" transform="translate(29.774 29.819)" fill="#f7f7f7"/>
          </g>
        </g>
        <g id="Group_295" data-name="Group 295" transform="translate(22 11)">
          <g id="Polygon_1" data-name="Polygon 1" transform="matrix(-0.017, 1, -1, -0.017, 795.137, 281.271)" fill="#707070" stroke-linecap="round">
            <path d="M 18.20842933654785 30.41223526000977 L 2.791569948196411 30.41223526000977 C 2.301860094070435 30.41223526000977 1.857419967651367 30.18391418457031 1.572219967842102 29.78583526611328 C 1.287009954452515 29.38774490356445 1.213770031929016 28.89348411560059 1.371269941329956 28.42979431152344 L 9.079689979553223 5.736014366149902 C 9.334529876708984 4.985764503479004 9.980469703674316 4.718444347381592 10.5 4.718444347381592 C 11.01953029632568 4.718444347381592 11.66547012329102 4.985764503479004 11.92031002044678 5.736014366149902 L 19.62873077392578 28.42979431152344 C 19.78623008728027 28.89348411560059 19.71298980712891 29.38774490356445 19.42778015136719 29.78583526611328 C 19.14258003234863 30.18391418457031 18.69813919067383 30.41223526000977 18.20842933654785 30.41223526000977 Z" stroke="none"/>
            <path d="M 10.5 5.21844482421875 C 10.33193016052246 5.21844482421875 9.766929626464844 5.267364501953125 9.553130149841309 5.896814346313477 L 1.844699859619141 28.59060478210449 C 1.739700317382812 28.89973449707031 1.788530349731445 29.22923469543457 1.978670120239258 29.4946346282959 C 2.16880989074707 29.76002502441406 2.465099334716797 29.91223526000977 2.791570663452148 29.91223526000977 L 18.20842933654785 29.91223526000977 C 18.5349006652832 29.91223526000977 18.83119010925293 29.76002502441406 19.02132987976074 29.4946346282959 C 19.21146965026855 29.22924423217773 19.26029968261719 28.89973449707031 19.1552906036377 28.59060478210449 L 11.44686985015869 5.896823883056641 C 11.23305988311768 5.267364501953125 10.66806983947754 5.21844482421875 10.5 5.21844482421875 M 10.5 4.21844482421875 C 11.29325294494629 4.21844482421875 12.08650493621826 4.670694351196289 12.39373970031738 5.575193405151367 L 20.10215950012207 28.26898384094238 C 20.54276084899902 29.56610488891602 19.57834053039551 30.91223526000977 18.20842933654785 30.91223526000977 L 2.791570663452148 30.91223526000977 C 1.421659469604492 30.91223526000977 0.4572391510009766 29.56610488891602 0.8978290557861328 28.26898384094238 L 8.606260299682617 5.575193405151367 C 8.913495063781738 4.670694351196289 9.706747055053711 4.21844482421875 10.5 4.21844482421875 Z" stroke="none" fill="#707070"/>
          </g>
          <path id="Path_41" data-name="Path 41" d="M0,0H172" transform="translate(607.5 291.5)" fill="none" stroke="#707070" stroke-linecap="round" stroke-width="5"/>
        </g>
        <g id="Group_297" data-name="Group 297" transform="translate(472.682 11)">
          <g id="Polygon_1-2" data-name="Polygon 1" transform="matrix(-0.017, 1, -1, -0.017, 795.137, 281.271)" fill="#707070" stroke-linecap="round">
            <path d="M 18.20842933654785 30.41223526000977 L 2.791569948196411 30.41223526000977 C 2.301860094070435 30.41223526000977 1.857419967651367 30.18391418457031 1.572219967842102 29.78583526611328 C 1.287009954452515 29.38774490356445 1.213770031929016 28.89348411560059 1.371269941329956 28.42979431152344 L 9.079689979553223 5.736014366149902 C 9.334529876708984 4.985764503479004 9.980469703674316 4.718444347381592 10.5 4.718444347381592 C 11.01953029632568 4.718444347381592 11.66547012329102 4.985764503479004 11.92031002044678 5.736014366149902 L 19.62873077392578 28.42979431152344 C 19.78623008728027 28.89348411560059 19.71298980712891 29.38774490356445 19.42778015136719 29.78583526611328 C 19.14258003234863 30.18391418457031 18.69813919067383 30.41223526000977 18.20842933654785 30.41223526000977 Z" stroke="none"/>
            <path d="M 10.5 5.21844482421875 C 10.33193016052246 5.21844482421875 9.766929626464844 5.267364501953125 9.553130149841309 5.896814346313477 L 1.844699859619141 28.59060478210449 C 1.739700317382812 28.89973449707031 1.788530349731445 29.22923469543457 1.978670120239258 29.4946346282959 C 2.16880989074707 29.76002502441406 2.465099334716797 29.91223526000977 2.791570663452148 29.91223526000977 L 18.20842933654785 29.91223526000977 C 18.5349006652832 29.91223526000977 18.83119010925293 29.76002502441406 19.02132987976074 29.4946346282959 C 19.21146965026855 29.22924423217773 19.26029968261719 28.89973449707031 19.1552906036377 28.59060478210449 L 11.44686985015869 5.896823883056641 C 11.23305988311768 5.267364501953125 10.66806983947754 5.21844482421875 10.5 5.21844482421875 M 10.5 4.21844482421875 C 11.29325294494629 4.21844482421875 12.08650493621826 4.670694351196289 12.39373970031738 5.575193405151367 L 20.10215950012207 28.26898384094238 C 20.54276084899902 29.56610488891602 19.57834053039551 30.91223526000977 18.20842933654785 30.91223526000977 L 2.791570663452148 30.91223526000977 C 1.421659469604492 30.91223526000977 0.4572391510009766 29.56610488891602 0.8978290557861328 28.26898384094238 L 8.606260299682617 5.575193405151367 C 8.913495063781738 4.670694351196289 9.706747055053711 4.21844482421875 10.5 4.21844482421875 Z" stroke="none" fill="#707070"/>
          </g>
          <path id="Path_41-2" data-name="Path 41" d="M0,0H172" transform="translate(607.5 291.5)" fill="none" stroke="#707070" stroke-linecap="round" stroke-width="5"/>
        </g>
      </g>
      <g id="Group_299" data-name="Group 299" transform="translate(239 -53)">
        <g id="Group_288" data-name="Group 288" transform="translate(449 519.117)">
          <circle id="Ellipse_22-3" data-name="Ellipse 22" cx="61" cy="61" r="61" transform="translate(0 -0.117)" fill="#255959"/>
          <text id="Definition" transform="translate(61 153.883)" font-size="21" font-family="SF Compact" font-weight="600" letter-spacing="0.1em"><tspan x="-56.008" y="0">Definition</tspan></text>
          <g id="Icon_feather-file-text" data-name="Icon feather-file-text" transform="translate(41.58 36.286)">
            <path id="Path_36" data-name="Path 36" d="M30.485,3H10.9A4.9,4.9,0,0,0,6,7.9V47.072a4.9,4.9,0,0,0,4.9,4.9H40.278a4.9,4.9,0,0,0,4.9-4.9V17.691Z" transform="translate(-6 -3)" fill="none" stroke="#f7f7f7" stroke-linecap="round" stroke-linejoin="round" stroke-width="5"/>
            <path id="Path_37" data-name="Path 37" d="M21,3V17.691H35.691" transform="translate(3.485 -3)" fill="none" stroke="#f7f7f7" stroke-linecap="round" stroke-linejoin="round" stroke-width="5"/>
            <path id="Path_38" data-name="Path 38" d="M31.588,19.5H12" transform="translate(-2.206 7.433)" fill="none" stroke="#f7f7f7" stroke-linecap="round" stroke-linejoin="round" stroke-width="5"/>
            <path id="Path_39" data-name="Path 39" d="M31.588,25.5H12" transform="translate(-2.206 11.227)" fill="none" stroke="#f7f7f7" stroke-linecap="round" stroke-linejoin="round" stroke-width="5"/>
            <path id="Path_40" data-name="Path 40" d="M16.9,13.5H12" transform="translate(-2.206 3.639)" fill="none" stroke="#f7f7f7" stroke-linecap="round" stroke-linejoin="round" stroke-width="5"/>
          </g>
        </g>
        <g id="Group_290" data-name="Group 290" transform="translate(853.855 519.117)">
          <circle id="Ellipse_22-4" data-name="Ellipse 22" cx="61" cy="61" r="61" transform="translate(11.145 -0.117)" fill="#255959"/>
          <text id="Wireframing" transform="translate(72.145 153.883)" font-size="21" font-family="SF Compact" font-weight="600" letter-spacing="0.1em"><tspan x="-69.388" y="0">Wireframing</tspan></text>
          <path id="Icon_simple-processwire" data-name="Icon simple-processwire" d="M57.831,13.891A32.235,32.235,0,0,0,28.322.16,31.825,31.825,0,0,0,10.107,8.078,30.156,30.156,0,0,0,1.055,22.12a30.418,30.418,0,0,0-.7,12.674,43.053,43.053,0,0,0,2.217,7.721,2.52,2.52,0,0,0,1.081,1.3c1.244.68,3.287.082,4.855-1.679a.443.443,0,0,0,.079-.385,36.169,36.169,0,0,1-.751-3.933,35.444,35.444,0,0,1-.277-8.2,23.88,23.88,0,0,1,.988-5.19,22.95,22.95,0,0,1,6.853-10.491,24.812,24.812,0,0,1,13.3-5.984,23.647,23.647,0,0,1,8.432.535,25.3,25.3,0,0,1,7.842,3.553,23.46,23.46,0,0,1,6.258,6.229,23.336,23.336,0,0,1,3.8,17.366,24.878,24.878,0,0,1-3.327,8.633,23.29,23.29,0,0,1-6.334,6.708,24.681,24.681,0,0,1-8.393,3.78,22.9,22.9,0,0,1-4.555.633,25.5,25.5,0,0,1-4.473-.216c-1.9-.3-2.3-.788-2.731-1.447a4.042,4.042,0,0,1-.387-1.745c.029-11.611.024-8.511.024-14.54,0-1.7-.055-3.247-.04-4.65.079-2.3.274-3.883,1.919-5.6a6.4,6.4,0,0,1,4.684-2.024,6.153,6.153,0,0,1,6.337,5.546,7.208,7.208,0,0,1-2.536,6.234A9.184,9.184,0,0,1,32.687,38.3a10.756,10.756,0,0,1-4.036.48.393.393,0,0,0-.416.314L27.8,41.349a1.929,1.929,0,0,0,1.081,2.562,13.341,13.341,0,0,0,5.2.633A13,13,0,0,0,42.121,41,11.786,11.786,0,0,0,45.7,34.024a15.492,15.492,0,0,0-1.466-8.83,14.508,14.508,0,0,0-17.007-7.3l-.04.013a14.543,14.543,0,0,0-6.226,3.827,14.3,14.3,0,0,0-3.208,5.148,16.424,16.424,0,0,0-.9,5.76c-.042,1.7.04,3.284.04,4.766v9.756c0,3.121-.105,3.661,0,5.267a12.233,12.233,0,0,0,.672,3.564,10.188,10.188,0,0,0,2.177,3.564,10.32,10.32,0,0,0,3.408,2.372c2.77,1.231,6.532,1.426,9.582,1.307a31.375,31.375,0,0,0,6.039-.828A32.2,32.2,0,0,0,49.936,57.35,31.045,31.045,0,0,0,58.4,48.406a32.326,32.326,0,0,0,4.4-11.448,31.174,31.174,0,0,0-5.066-23.165l.1.1Z" transform="translate(40.658 29.138)" fill="#f7f7f7"/>
        </g>
        <g id="Group_291" data-name="Group 291" transform="translate(1322.094 519.117)">
          <circle id="Ellipse_22-5" data-name="Ellipse 22" cx="61" cy="61" r="61" transform="translate(5.906 -0.117)" fill="#255959"/>
          <text id="Prototyping" transform="translate(66.906 153.883)" font-size="21" font-family="SF Compact" font-weight="600" letter-spacing="0.1em"><tspan x="-66.85" y="0">Prototyping</tspan></text>
          <path id="Icon_awesome-mobile-alt" data-name="Icon awesome-mobile-alt" d="M36.637,0H6.465A6.467,6.467,0,0,0,0,6.465V62.5a6.467,6.467,0,0,0,6.465,6.465H36.637A6.467,6.467,0,0,0,43.1,62.5V6.465A6.467,6.467,0,0,0,36.637,0ZM21.551,64.653a4.31,4.31,0,1,1,4.31-4.31A4.306,4.306,0,0,1,21.551,64.653ZM36.637,50.106a1.621,1.621,0,0,1-1.616,1.616H8.082a1.621,1.621,0,0,1-1.616-1.616V8.082A1.621,1.621,0,0,1,8.082,6.465H35.02a1.621,1.621,0,0,1,1.616,1.616Z" transform="translate(45.574 26.289)" fill="#f7f7f7"/>
        </g>
        <g id="Group_295-2" data-name="Group 295" transform="translate(22 282)">
          <g id="Polygon_1-3" data-name="Polygon 1" transform="matrix(-0.017, 1, -1, -0.017, 795.137, 281.271)" fill="#707070" stroke-linecap="round">
            <path d="M 18.20842933654785 30.41223526000977 L 2.791569948196411 30.41223526000977 C 2.301860094070435 30.41223526000977 1.857419967651367 30.18391418457031 1.572219967842102 29.78583526611328 C 1.287009954452515 29.38774490356445 1.213770031929016 28.89348411560059 1.371269941329956 28.42979431152344 L 9.079689979553223 5.736014366149902 C 9.334529876708984 4.985764503479004 9.980469703674316 4.718444347381592 10.5 4.718444347381592 C 11.01953029632568 4.718444347381592 11.66547012329102 4.985764503479004 11.92031002044678 5.736014366149902 L 19.62873077392578 28.42979431152344 C 19.78623008728027 28.89348411560059 19.71298980712891 29.38774490356445 19.42778015136719 29.78583526611328 C 19.14258003234863 30.18391418457031 18.69813919067383 30.41223526000977 18.20842933654785 30.41223526000977 Z" stroke="none"/>
            <path d="M 10.5 5.21844482421875 C 10.33193016052246 5.21844482421875 9.766929626464844 5.267364501953125 9.553130149841309 5.896814346313477 L 1.844699859619141 28.59060478210449 C 1.739700317382812 28.89973449707031 1.788530349731445 29.22923469543457 1.978670120239258 29.4946346282959 C 2.16880989074707 29.76002502441406 2.465099334716797 29.91223526000977 2.791570663452148 29.91223526000977 L 18.20842933654785 29.91223526000977 C 18.5349006652832 29.91223526000977 18.83119010925293 29.76002502441406 19.02132987976074 29.4946346282959 C 19.21146965026855 29.22924423217773 19.26029968261719 28.89973449707031 19.1552906036377 28.59060478210449 L 11.44686985015869 5.896823883056641 C 11.23305988311768 5.267364501953125 10.66806983947754 5.21844482421875 10.5 5.21844482421875 M 10.5 4.21844482421875 C 11.29325294494629 4.21844482421875 12.08650493621826 4.670694351196289 12.39373970031738 5.575193405151367 L 20.10215950012207 28.26898384094238 C 20.54276084899902 29.56610488891602 19.57834053039551 30.91223526000977 18.20842933654785 30.91223526000977 L 2.791570663452148 30.91223526000977 C 1.421659469604492 30.91223526000977 0.4572391510009766 29.56610488891602 0.8978290557861328 28.26898384094238 L 8.606260299682617 5.575193405151367 C 8.913495063781738 4.670694351196289 9.706747055053711 4.21844482421875 10.5 4.21844482421875 Z" stroke="none" fill="#707070"/>
          </g>
          <path id="Path_41-3" data-name="Path 41" d="M0,0H172" transform="translate(607.5 291.5)" fill="none" stroke="#707070" stroke-linecap="round" stroke-width="5"/>
        </g>
        <g id="Group_297-2" data-name="Group 297" transform="translate(472.682 282)">
          <g id="Polygon_1-4" data-name="Polygon 1" transform="matrix(-0.017, 1, -1, -0.017, 795.137, 281.271)" fill="#707070" stroke-linecap="round">
            <path d="M 18.20842933654785 30.41223526000977 L 2.791569948196411 30.41223526000977 C 2.301860094070435 30.41223526000977 1.857419967651367 30.18391418457031 1.572219967842102 29.78583526611328 C 1.287009954452515 29.38774490356445 1.213770031929016 28.89348411560059 1.371269941329956 28.42979431152344 L 9.079689979553223 5.736014366149902 C 9.334529876708984 4.985764503479004 9.980469703674316 4.718444347381592 10.5 4.718444347381592 C 11.01953029632568 4.718444347381592 11.66547012329102 4.985764503479004 11.92031002044678 5.736014366149902 L 19.62873077392578 28.42979431152344 C 19.78623008728027 28.89348411560059 19.71298980712891 29.38774490356445 19.42778015136719 29.78583526611328 C 19.14258003234863 30.18391418457031 18.69813919067383 30.41223526000977 18.20842933654785 30.41223526000977 Z" stroke="none"/>
            <path d="M 10.5 5.21844482421875 C 10.33193016052246 5.21844482421875 9.766929626464844 5.267364501953125 9.553130149841309 5.896814346313477 L 1.844699859619141 28.59060478210449 C 1.739700317382812 28.89973449707031 1.788530349731445 29.22923469543457 1.978670120239258 29.4946346282959 C 2.16880989074707 29.76002502441406 2.465099334716797 29.91223526000977 2.791570663452148 29.91223526000977 L 18.20842933654785 29.91223526000977 C 18.5349006652832 29.91223526000977 18.83119010925293 29.76002502441406 19.02132987976074 29.4946346282959 C 19.21146965026855 29.22924423217773 19.26029968261719 28.89973449707031 19.1552906036377 28.59060478210449 L 11.44686985015869 5.896823883056641 C 11.23305988311768 5.267364501953125 10.66806983947754 5.21844482421875 10.5 5.21844482421875 M 10.5 4.21844482421875 C 11.29325294494629 4.21844482421875 12.08650493621826 4.670694351196289 12.39373970031738 5.575193405151367 L 20.10215950012207 28.26898384094238 C 20.54276084899902 29.56610488891602 19.57834053039551 30.91223526000977 18.20842933654785 30.91223526000977 L 2.791570663452148 30.91223526000977 C 1.421659469604492 30.91223526000977 0.4572391510009766 29.56610488891602 0.8978290557861328 28.26898384094238 L 8.606260299682617 5.575193405151367 C 8.913495063781738 4.670694351196289 9.706747055053711 4.21844482421875 10.5 4.21844482421875 Z" stroke="none" fill="#707070"/>
          </g>
          <path id="Path_41-4" data-name="Path 41" d="M0,0H172" transform="translate(607.5 291.5)" fill="none" stroke="#707070" stroke-linecap="round" stroke-width="5"/>
        </g>
      </g>
      <g id="Group_298" data-name="Group 298" transform="translate(239 -53)">
        <g id="Group_292" data-name="Group 292" transform="translate(449 768.403)">
          <circle id="Ellipse_22-6" data-name="Ellipse 22" cx="61" cy="61" r="61" transform="translate(0 -0.403)" fill="#255959"/>
          <text id="Testing" transform="translate(61 154.597)" font-size="21" font-family="SF Compact" font-weight="600" letter-spacing="0.1em"><tspan x="-40.871" y="0">Testing</tspan></text>
          <path id="Icon_material-speaker-notes" data-name="Icon material-speaker-notes" d="M48.82,3H8.091A5.084,5.084,0,0,0,3.025,8.091L3,53.911,13.182,43.729H48.82a5.106,5.106,0,0,0,5.091-5.091V8.091A5.106,5.106,0,0,0,48.82,3ZM18.273,33.547H13.182V28.455h5.091Zm0-7.637H13.182V20.819h5.091Zm0-7.637H13.182V13.182h5.091ZM36.092,33.547H23.364V28.455H36.092Zm7.637-7.637H23.364V20.819H43.729Zm0-7.637H23.364V13.182H43.729Z" transform="translate(32.315 32.315)" fill="#f7f7f7"/>
        </g>
        <g id="Group_293" data-name="Group 293" transform="translate(865.771 767.609)">
          <circle id="Ellipse_22-7" data-name="Ellipse 22" cx="60.5" cy="60.5" r="60.5" transform="translate(0.229 0.391)" fill="#255959"/>
          <text id="Iteration" transform="translate(61.229 154.391)" font-size="21" font-family="SF Compact" font-weight="600" letter-spacing="0.1em"><tspan x="-48.913" y="0">Iteration</tspan></text>
          <path id="Icon_awesome-tools" data-name="Icon awesome-tools" d="M47.737,37.7,36.582,26.54a7.073,7.073,0,0,0-8.135-1.324L18.292,15.061V9.145L6.1,0,0,6.1,9.146,18.29h5.916L25.217,28.445a7.089,7.089,0,0,0,1.324,8.135L37.7,47.736a3.542,3.542,0,0,0,5.02,0l5.02-5.02a3.559,3.559,0,0,0,0-5.02ZM31.6,21.434a10.023,10.023,0,0,1,7.135,2.953l1.848,1.848a13.484,13.484,0,0,0,4.172-2.81A13.7,13.7,0,0,0,48.366,10.4a1.14,1.14,0,0,0-1.915-.524l-7.087,7.087L32.9,15.89,31.819,9.421l7.087-7.087A1.15,1.15,0,0,0,38.363.41,13.723,13.723,0,0,0,25.35,4.02a13.5,13.5,0,0,0-3.925,9.869l7.821,7.821A10.378,10.378,0,0,1,31.6,21.434Zm-9.9,7.811-5.4-5.4L1.783,38.372A6.1,6.1,0,0,0,10.4,46.993L22.178,35.218a10.23,10.23,0,0,1-.476-5.973ZM6.1,44.964a2.286,2.286,0,1,1,2.286-2.286A2.293,2.293,0,0,1,6.1,44.964Z" transform="translate(36.782 36.38)" fill="#f7f7f7"/>
        </g>
        <g id="Group_294" data-name="Group 294" transform="translate(1328.244 781.609)">
          <ellipse id="Ellipse_22-8" data-name="Ellipse 22" cx="61" cy="60.5" rx="61" ry="60.5" transform="translate(-0.244 0.391)" fill="#255959"/>
          <text id="Coding" transform="translate(60.756 154.391)" font-size="21" font-family="SF Compact" font-weight="600" letter-spacing="0.1em"><tspan x="-38.801" y="0">Coding</tspan></text>
          <path id="Icon_awesome-code" data-name="Icon awesome-code" d="M24.924,45.708l-5.451-1.582A1.074,1.074,0,0,1,18.74,42.8L30.938.777A1.074,1.074,0,0,1,32.269.044l5.451,1.582a1.074,1.074,0,0,1,.733,1.332l-12.2,42.018a1.071,1.071,0,0,1-1.332.733ZM14.736,35.682l3.887-4.146A1.072,1.072,0,0,0,18.552,30l-8.1-7.122,8.1-7.122a1.065,1.065,0,0,0,.071-1.537L14.736,10.07a1.073,1.073,0,0,0-1.519-.045L.34,22.09a1.065,1.065,0,0,0,0,1.564L13.217,35.727a1.066,1.066,0,0,0,1.519-.045Zm29.24.054L56.853,23.663a1.065,1.065,0,0,0,0-1.564L43.976,10.017a1.082,1.082,0,0,0-1.519.045L38.57,14.208a1.072,1.072,0,0,0,.071,1.537l8.1,7.131L38.641,30a1.065,1.065,0,0,0-.071,1.537l3.887,4.146a1.074,1.074,0,0,0,1.519.054Z" transform="translate(32.571 37.892)" fill="#f7f7f7"/>
        </g>
        <g id="Group_295-3" data-name="Group 295" transform="translate(22 553)">
          <g id="Polygon_1-5" data-name="Polygon 1" transform="matrix(-0.017, 1, -1, -0.017, 795.137, 281.271)" fill="#707070" stroke-linecap="round">
            <path d="M 18.20842933654785 30.41223526000977 L 2.791569948196411 30.41223526000977 C 2.301860094070435 30.41223526000977 1.857419967651367 30.18391418457031 1.572219967842102 29.78583526611328 C 1.287009954452515 29.38774490356445 1.213770031929016 28.89348411560059 1.371269941329956 28.42979431152344 L 9.079689979553223 5.736014366149902 C 9.334529876708984 4.985764503479004 9.980469703674316 4.718444347381592 10.5 4.718444347381592 C 11.01953029632568 4.718444347381592 11.66547012329102 4.985764503479004 11.92031002044678 5.736014366149902 L 19.62873077392578 28.42979431152344 C 19.78623008728027 28.89348411560059 19.71298980712891 29.38774490356445 19.42778015136719 29.78583526611328 C 19.14258003234863 30.18391418457031 18.69813919067383 30.41223526000977 18.20842933654785 30.41223526000977 Z" stroke="none"/>
            <path d="M 10.5 5.21844482421875 C 10.33193016052246 5.21844482421875 9.766929626464844 5.267364501953125 9.553130149841309 5.896814346313477 L 1.844699859619141 28.59060478210449 C 1.739700317382812 28.89973449707031 1.788530349731445 29.22923469543457 1.978670120239258 29.4946346282959 C 2.16880989074707 29.76002502441406 2.465099334716797 29.91223526000977 2.791570663452148 29.91223526000977 L 18.20842933654785 29.91223526000977 C 18.5349006652832 29.91223526000977 18.83119010925293 29.76002502441406 19.02132987976074 29.4946346282959 C 19.21146965026855 29.22924423217773 19.26029968261719 28.89973449707031 19.1552906036377 28.59060478210449 L 11.44686985015869 5.896823883056641 C 11.23305988311768 5.267364501953125 10.66806983947754 5.21844482421875 10.5 5.21844482421875 M 10.5 4.21844482421875 C 11.29325294494629 4.21844482421875 12.08650493621826 4.670694351196289 12.39373970031738 5.575193405151367 L 20.10215950012207 28.26898384094238 C 20.54276084899902 29.56610488891602 19.57834053039551 30.91223526000977 18.20842933654785 30.91223526000977 L 2.791570663452148 30.91223526000977 C 1.421659469604492 30.91223526000977 0.4572391510009766 29.56610488891602 0.8978290557861328 28.26898384094238 L 8.606260299682617 5.575193405151367 C 8.913495063781738 4.670694351196289 9.706747055053711 4.21844482421875 10.5 4.21844482421875 Z" stroke="none" fill="#707070"/>
          </g>
          <path id="Path_41-5" data-name="Path 41" d="M0,0H172" transform="translate(607.5 291.5)" fill="none" stroke="#707070" stroke-linecap="round" stroke-width="5"/>
        </g>
        <g id="Group_297-3" data-name="Group 297" transform="translate(472.682 553)">
          <g id="Polygon_1-6" data-name="Polygon 1" transform="matrix(-0.017, 1, -1, -0.017, 795.137, 281.271)" fill="#707070" stroke-linecap="round">
            <path d="M 18.20842933654785 30.41223526000977 L 2.791569948196411 30.41223526000977 C 2.301860094070435 30.41223526000977 1.857419967651367 30.18391418457031 1.572219967842102 29.78583526611328 C 1.287009954452515 29.38774490356445 1.213770031929016 28.89348411560059 1.371269941329956 28.42979431152344 L 9.079689979553223 5.736014366149902 C 9.334529876708984 4.985764503479004 9.980469703674316 4.718444347381592 10.5 4.718444347381592 C 11.01953029632568 4.718444347381592 11.66547012329102 4.985764503479004 11.92031002044678 5.736014366149902 L 19.62873077392578 28.42979431152344 C 19.78623008728027 28.89348411560059 19.71298980712891 29.38774490356445 19.42778015136719 29.78583526611328 C 19.14258003234863 30.18391418457031 18.69813919067383 30.41223526000977 18.20842933654785 30.41223526000977 Z" stroke="none"/>
            <path d="M 10.5 5.21844482421875 C 10.33193016052246 5.21844482421875 9.766929626464844 5.267364501953125 9.553130149841309 5.896814346313477 L 1.844699859619141 28.59060478210449 C 1.739700317382812 28.89973449707031 1.788530349731445 29.22923469543457 1.978670120239258 29.4946346282959 C 2.16880989074707 29.76002502441406 2.465099334716797 29.91223526000977 2.791570663452148 29.91223526000977 L 18.20842933654785 29.91223526000977 C 18.5349006652832 29.91223526000977 18.83119010925293 29.76002502441406 19.02132987976074 29.4946346282959 C 19.21146965026855 29.22924423217773 19.26029968261719 28.89973449707031 19.1552906036377 28.59060478210449 L 11.44686985015869 5.896823883056641 C 11.23305988311768 5.267364501953125 10.66806983947754 5.21844482421875 10.5 5.21844482421875 M 10.5 4.21844482421875 C 11.29325294494629 4.21844482421875 12.08650493621826 4.670694351196289 12.39373970031738 5.575193405151367 L 20.10215950012207 28.26898384094238 C 20.54276084899902 29.56610488891602 19.57834053039551 30.91223526000977 18.20842933654785 30.91223526000977 L 2.791570663452148 30.91223526000977 C 1.421659469604492 30.91223526000977 0.4572391510009766 29.56610488891602 0.8978290557861328 28.26898384094238 L 8.606260299682617 5.575193405151367 C 8.913495063781738 4.670694351196289 9.706747055053711 4.21844482421875 10.5 4.21844482421875 Z" stroke="none" fill="#707070"/>
          </g>
          <path id="Path_41-6" data-name="Path 41" d="M0,0H172" transform="translate(607.5 291.5)" fill="none" stroke="#707070" stroke-linecap="round" stroke-width="5"/>
        </g>
      </g>
      <path id="Path_14" data-name="Path 14" d="M127.715,661.745C-354.379-289.769,683.9,95.054,683.9,95.054s15.045-10.789,49.737-24.427c116.216-45.686,412.434-130.952,734.338-4.675,416.973,163.572,1141.864,425.589,777.815,693.2s-111.278,369.483-807.973,519.649S609.808,1613.259,127.715,661.745Z" transform="translate(2139.234 -34.877) rotate(171)" fill="none" stroke="#255959" stroke-width="2"/>
    </g>
  </g>
</svg>
