<svg xmlns="http://www.w3.org/2000/svg" xmlns:xlink="http://www.w3.org/1999/xlink" width="1920" height="1080" viewBox="0 0 1920 1080"><defs><filter id="a" x="707.568" y="215.314" width="826" height="719" filterUnits="userSpaceOnUse"><feOffset dx="6" dy="3" input="SourceAlpha"/><feGaussianBlur stdDeviation="5" result="b"/><feFlood flood-color="#707070"/><feComposite operator="in" in2="b"/><feComposite in="SourceGraphic"/></filter><filter id="c" x="381" y="841" width="164" height="164" filterUnits="userSpaceOnUse"><feOffset dy="3" input="SourceAlpha"/><feGaussianBlur stdDeviation="3" result="d"/><feFlood flood-opacity="0.161"/><feComposite operator="in" in2="d"/><feComposite in="SourceGraphic"/></filter><filter id="e" x="388" y="864" width="171.377" height="171.377" filterUnits="userSpaceOnUse"><feOffset dx="-5" dy="3" input="SourceAlpha"/><feGaussianBlur stdDeviation="3" result="f"/><feFlood flood-color="#255959" flood-opacity="0.282"/><feComposite operator="in" in2="f"/><feComposite in="SourceGraphic"/></filter><clipPath id="h"><rect width="1920" height="1080"/></clipPath></defs><g id="g" clip-path="url(#h)"><rect width="1920" height="1080" fill="#fff"/><g transform="translate(130.568 -40.686)"><g transform="translate(88 -49)"><g transform="matrix(1, 0, 0, 1, -218.57, 89.69)" filter="url(#a)"><g transform="translate(1512.57 916.31) rotate(180)" fill="#f1f1f1"><path d="M 790.9132690429688 685.1922607421875 C 785.0564575195312 683.7947387695312 774.8697509765625 681.4232788085938 761.2225952148438 678.4713134765625 C 740.7348022460938 674.039794921875 708.019775390625 667.352783203125 668.5133056640625 660.6624755859375 C 624.1072998046875 653.142578125 580.3444213867188 647.1505737304688 538.440185546875 642.8530883789062 C 486.0433044433594 637.4794921875 436.4176025390625 634.7548828125 390.9417114257812 634.7548828125 C 345.4634094238281 634.7548828125 296.577392578125 637.4797973632812 245.6416015625 642.8538818359375 C 204.9042053222656 647.1519775390625 162.7698059082031 653.144775390625 120.4087982177734 660.6658935546875 C 82.72029876708984 667.3574829101562 51.82310104370117 674.0458984375 32.54019927978516 678.4783935546875 C 20.06250762939453 681.3465576171875 10.69912528991699 683.6675415039062 5.151668071746826 685.0797729492188 L 398 4.998106002807617 L 790.9132690429688 685.1922607421875 Z" stroke="none"/><path d="M 398 9.99615478515625 L 10.27001953125 681.2171020507812 C 15.75823974609375 679.8565673828125 23.08062744140625 678.0875854492188 31.9801025390625 676.0418701171875 C 51.291015625 671.60302734375 82.23223876953125 664.905029296875 119.9718017578125 658.2044677734375 C 162.3904418945312 650.673095703125 204.5835571289062 644.671875 245.3793334960938 640.36767578125 C 296.4017639160156 634.9844360351562 345.3760986328125 632.2548828125 390.9416809082031 632.2548828125 C 436.50244140625 632.2548828125 486.2138977050781 634.98388671875 538.6951904296875 640.3660888671875 C 580.653564453125 644.6692504882812 624.4710083007812 650.6685791015625 668.9306640625 658.1976928710938 C 708.4833374023438 664.895751953125 741.2380981445312 671.5907592773438 761.7510986328125 676.0278930664062 C 771.7505493164062 678.1907348632812 779.9000244140625 680.043701171875 785.8536376953125 681.4312133789062 L 398 9.99615478515625 M 398 0 L 794.030029296875 685.5896606445312 L 796 689 C 796 689 589.941650390625 637.2548828125 390.9416809082031 637.2548828125 C 191.941650390625 637.2548828125 0 689 0 689 L 398 0 Z" stroke="none" fill="#255959"/></g></g><path d="M0,1S67.8,45.952,134.429,45.7,266.512,0,266.512,0" transform="translate(762.546 769.5)" fill="none" stroke="#255959" stroke-linecap="round" stroke-width="5"/><path d="M0,1S112.951,45.952,223.948,45.7,443.988,0,443.988,0" transform="translate(673.906 615.797)" fill="none" stroke="#255959" stroke-linecap="round" stroke-width="5"/><path d="M0,1S152.89,45.952,303.135,45.7,600.982,0,600.982,0" transform="translate(596.378 479.5)" fill="none" stroke="#255959" stroke-linecap="round" stroke-width="5"/><path d="M0,1.428s201.155,64.2,398.831,63.842S790.7,0,790.7,0" transform="translate(1291.61 318.643) rotate(-180)" fill="none" stroke="#255959" stroke-linecap="round" stroke-width="5"/></g><text transform="translate(893 403)" fill="#255959" font-size="33" font-family="OpenSans-Semibold, Open Sans" font-weight="600"><tspan x="0" y="0">Awareness </tspan></text><text transform="translate(921 543)" fill="#255959" font-size="33" font-family="OpenSans-Semibold, Open Sans" font-weight="600"><tspan x="0" y="0">Interest</tspan></text><text transform="translate(873 683)" fill="#255959" font-size="33" font-family="OpenSans-Semibold, Open Sans" font-weight="600"><tspan x="0" y="0">Consideration</tspan></text><text transform="translate(934 834)" fill="#255959" font-size="33" font-family="OpenSans-Semibold, Open Sans" font-weight="600"><tspan x="0" y="0">Action</tspan></text></g><path d="M46.944,451.109C-127.031,253,238.566,134.4,238.566,134.4S394.6-68.109,563.521,24.034s462.9,238.1,309.4,418.974-128.81,299.631-339.6,354.12S220.918,649.214,46.944,451.109Z" transform="translate(-395.106 239) rotate(25)" fill="#d9b590" opacity="0.301"/><g transform="matrix(0.999, -0.035, 0.035, 0.999, 1110.311, 230.245)" opacity="0.301"><path d="M102,362.668C-202.409-205.85,279.754,67.452,279.754,67.452s163.1-85.225,377,34,584.087,313.868,428.074,441.624-26.142,201.56-351.821,241.571S406.407,931.186,102,362.668Z" transform="matrix(0.946, -0.326, 0.326, 0.946, 473.31, 435.724)" fill="#325858"/></g><text transform="translate(30 312)" fill="#255959" font-size="68" font-family="OpenSans-Bold, Open Sans" font-weight="700"><tspan x="0" y="0">User Funnel</tspan></text><rect width="491" height="204" fill="#c1cccc"/><g transform="translate(-1143 656)"><g transform="matrix(1, 0, 0, 1, 1143, -656)" filter="url(#c)"><g transform="translate(390 847)" fill="#d9b590" stroke="#d9b590" stroke-width="1"><circle cx="73" cy="73" r="73" stroke="none"/><circle cx="73" cy="73" r="72.5" fill="none"/></g></g><g transform="matrix(1, 0, 0, 1, 1143, -656)" filter="url(#e)"><g transform="translate(402 870)" fill="none"><path d="M76.688,0A76.688,76.688,0,1,1,0,76.688,76.688,76.688,0,0,1,76.688,0Z" stroke="none"/><path d="M 76.6884765625 3 C 66.73928070068359 3 57.08927917480469 4.947891235351562 48.00652313232422 8.789566040039062 C 43.64082336425781 10.6361083984375 39.42987060546875 12.9217529296875 35.49065399169922 15.58306884765625 C 31.58806610107422 18.21958923339844 27.91815185546875 21.24755859375 24.58283996582031 24.58283996582031 C 21.24755859375 27.91815185546875 18.21958923339844 31.58806610107422 15.58306884765625 35.49065399169922 C 12.9217529296875 39.42987060546875 10.6361083984375 43.64082336425781 8.789566040039062 48.00652313232422 C 4.947891235351562 57.08927917480469 3 66.73928070068359 3 76.6884765625 C 3 86.63767242431641 4.947891235351562 96.28767395019531 8.789566040039062 105.3704376220703 C 10.6361083984375 109.7361297607422 12.9217529296875 113.9470825195312 15.58306884765625 117.8863067626953 C 18.21958923339844 121.7888870239258 21.24755859375 125.4588012695312 24.58283996582031 128.7941131591797 C 27.91815185546875 132.12939453125 31.58806610107422 135.1573638916016 35.49065399169922 137.7938842773438 C 39.42987060546875 140.4552001953125 43.64082336425781 142.7408447265625 48.00652313232422 144.5873870849609 C 57.08927917480469 148.4290618896484 66.73928070068359 150.376953125 76.6884765625 150.376953125 C 86.63767242431641 150.376953125 96.28767395019531 148.4290618896484 105.3704376220703 144.5873870849609 C 109.7361297607422 142.7408447265625 113.9470825195312 140.4552001953125 117.8863067626953 137.7938842773438 C 121.7888870239258 135.1573638916016 125.4588012695312 132.12939453125 128.7941131591797 128.7941131591797 C 132.12939453125 125.4588012695312 135.1573638916016 121.7888870239258 137.7938842773438 117.8863067626953 C 140.4552001953125 113.9470825195312 142.7408447265625 109.7361297607422 144.5873870849609 105.3704376220703 C 148.4290618896484 96.28767395019531 150.376953125 86.63767242431641 150.376953125 76.6884765625 C 150.376953125 66.73928070068359 148.4290618896484 57.08927917480469 144.5873870849609 48.00652313232422 C 142.7408447265625 43.64082336425781 140.4552001953125 39.42987060546875 137.7938842773438 35.49065399169922 C 135.1573638916016 31.58806610107422 132.12939453125 27.91815185546875 128.7941131591797 24.58283996582031 C 125.4588012695312 21.24755859375 121.7888870239258 18.21958923339844 117.8863067626953 15.58306884765625 C 113.9470825195312 12.9217529296875 109.7361297607422 10.6361083984375 105.3704376220703 8.789566040039062 C 96.28767395019531 4.947891235351562 86.63767242431641 3 76.6884765625 3 M 76.6884765625 0 C 119.0423431396484 0 153.376953125 34.33460998535156 153.376953125 76.6884765625 C 153.376953125 119.0423431396484 119.0423431396484 153.376953125 76.6884765625 153.376953125 C 34.33460998535156 153.376953125 0 119.0423431396484 0 76.6884765625 C 0 34.33460998535156 34.33460998535156 0 76.6884765625 0 Z" stroke="none" fill="#255959"/></g></g></g><circle cx="18" cy="18" r="18" transform="translate(1750 120)" fill="#255959"/><circle cx="18" cy="18" r="18" transform="translate(473 732)" fill="#d9b590"/><text transform="translate(30 393)" font-size="38" font-family="OpenSans, Open Sans"><tspan x="0" y="0">The customer wanted to</tspan><tspan x="0" y="52">Implement the following</tspan><tspan x="0" y="104">user funnel.</tspan></text></g></svg>