<svg xmlns="http://www.w3.org/2000/svg" xmlns:xlink="http://www.w3.org/1999/xlink" width="1920" height="1080" viewBox="0 0 1920 1080"><defs><clipPath id="b"><rect width="1920" height="1080"/></clipPath></defs><g id="a" clip-path="url(#b)"><rect width="1920" height="1080" fill="#fff"/><g transform="translate(4114.346 728.742)"><text transform="translate(-2911.346 -254.742)" font-size="22" font-family="OpenSans, Open Sans"><tspan x="0" y="0">Information architecture confusing and sometimes missed</tspan></text><text transform="translate(-2911.346 -331.742)" font-size="22" font-family="OpenSans, Open Sans"><tspan x="0" y="0">Primary website’s goal and purpose is not clear enough </tspan></text><text transform="translate(-2978.346 -505.742)" fill="#255959" font-size="39" font-family="OpenSans-Bold, Open Sans" font-weight="700"><tspan x="0" y="0">Heuristic Evaluation </tspan></text><text transform="translate(-2911.346 -177.742)" font-size="22" font-family="OpenSans, Open Sans"><tspan x="0" y="0" xml:space="preserve">Lack of  descriptions and text information </tspan></text><text transform="translate(-2911.346 -100.742)" font-size="22" font-family="OpenSans, Open Sans"><tspan x="0" y="0">Color scheme left much to be desired</tspan></text><text transform="translate(-2911.346 -23.742)" font-size="22" font-family="OpenSans, Open Sans"><tspan x="0" y="0">Some inconsistencies in fonts </tspan></text><g transform="translate(173 -358)"><circle cx="25.5" cy="25.5" r="25.5" transform="translate(-3156.346 -9.742)" fill="#255959"/><text transform="translate(-3137.346 23.258)" fill="#f7f7f7" font-size="20" font-family="'\.AppleSystemUIFont'"><tspan x="0" y="0">1.</tspan></text></g><g transform="translate(173 -281)"><circle cx="25.5" cy="25.5" r="25.5" transform="translate(-3156.346 -9.742)" fill="#255959"/><text transform="translate(-3137.346 23.258)" fill="#f7f7f7" font-size="20" font-family="'\.AppleSystemUIFont'"><tspan x="0" y="0">2.</tspan></text></g><g transform="translate(173 -204)"><circle cx="25.5" cy="25.5" r="25.5" transform="translate(-3156.346 -9.742)" fill="#255959"/><text transform="translate(-3137.346 23.258)" fill="#f7f7f7" font-size="20" font-family="'\.AppleSystemUIFont'"><tspan x="0" y="0">3.</tspan></text></g><g transform="translate(173 -127)"><circle cx="25.5" cy="25.5" r="25.5" transform="translate(-3156.346 -9.742)" fill="#255959"/><text transform="translate(-3137.346 23.258)" fill="#f7f7f7" font-size="20" font-family="'\.AppleSystemUIFont'"><tspan x="0" y="0">4.</tspan></text></g><g transform="translate(173 -50)"><circle cx="25.5" cy="25.5" r="25.5" transform="translate(-3156.346 -9.742)" fill="#255959"/><text transform="translate(-3137.346 23.258)" fill="#f7f7f7" font-size="20" font-family="'\.AppleSystemUIFont'"><tspan x="0" y="0">5.</tspan></text></g></g><path d="M-757.093,1765.008c-247.131-179.384,243.783-238.035,243.783-238.035s201.451-148.73,436.078-56.164,642.2,241.937,443.046,373.305S206.549,2074.761-77.232,2097.264-509.961,1944.391-757.093,1765.008Z" transform="translate(1339.984 -997.726) rotate(21)" fill="#fcf8f5"/><g transform="matrix(0.891, 0.454, -0.454, 0.891, -789.997, -798.935)"><text transform="matrix(0.891, -0.454, 0.454, 0.891, 1629.939, 802.416)" font-size="30" font-family="OpenSans, Open Sans"><tspan x="0" y="0">Major headings are not easy to understand.</tspan><tspan x="0" y="41"></tspan><tspan x="0" y="82">Navigation plays a role as filters to the </tspan><tspan x="0" y="123">portfolio section.</tspan></text><path d="M51.409,246.107C-129.574-99.69,225.437,35.6,225.437,35.6S364.888-35.469,522.6,23.221,954.534,175.8,816.106,274.18,773.28,409.13,509.01,465.448,232.393,591.9,51.409,246.107Z" transform="matrix(0.946, -0.326, 0.326, 0.946, 1263.121, 282.236)" fill="#ebefef"/><text transform="matrix(0.891, -0.454, 0.454, 0.891, 1497.086, 504.23)" font-size="30" font-family="OpenSans, Open Sans"><tspan x="0" y="0">Website looks and feels outdated, </tspan><tspan x="0" y="41">missing a clear message to the customers</tspan></text></g><g transform="matrix(0.891, 0.454, -0.454, 0.891, -766.443, -890.976)"><path d="M56.811,258.848C-151.384-102.86,265.552,33.454,265.552,33.454S431.284-44.12,616.531,14.947,1124,168.1,959.042,274.486,906.363,417.722,593.524,482.008,265.006,620.556,56.811,258.848Z" transform="matrix(0.946, -0.326, 0.326, 0.946, 1203.463, 412.17)" fill="none" stroke="#255959" stroke-width="2"/></g><path d="M73.177,324.657C-186.854,145.211,329.685,86.54,329.685,86.54S541.652-62.241,788.525,30.357s675.727,242.02,466.172,373.435S1087.119,634.518,788.525,657.029,333.208,504.1,73.177,324.657Z" transform="translate(1693.59 -343.179) rotate(21)" fill="#fbf7f4"/></g></svg>