<svg xmlns="http://www.w3.org/2000/svg" xmlns:xlink="http://www.w3.org/1999/xlink" width="1920" height="1080" viewBox="0 0 1920 1080"><defs><clipPath id="b"><rect width="1920" height="1080"/></clipPath></defs><g id="a" clip-path="url(#b)"><rect width="1920" height="1080" fill="#fff"/><path d="M46.944,451.109C-127.031,253,238.566,134.4,238.566,134.4S394.6-68.109,563.521,24.034s462.9,238.1,309.4,418.974-128.81,299.631-339.6,354.12S220.918,649.214,46.944,451.109Z" transform="translate(1949.31 216) rotate(25)" fill="#d9b590" opacity="0.301"/><g transform="matrix(0.999, -0.035, 0.035, 0.999, -1489.689, -195.755)" opacity="0.301"><path d="M102,362.668C-202.409-205.85,279.754,67.452,279.754,67.452s163.1-85.225,377,34,584.087,313.868,428.074,441.624-26.142,201.56-351.821,241.571S406.407,931.186,102,362.668Z" transform="matrix(0.946, -0.326, 0.326, 0.946, 473.31, 435.724)" fill="#325858"/></g><text transform="translate(602 292)" fill="#255959" font-size="50" font-family="OpenSans-Bold, Open Sans" font-weight="700"><tspan x="0" y="0">Value Proposition Statement</tspan></text><text transform="translate(960 468)" font-size="46" font-family="OpenSans-Bold, Open Sans" font-weight="700"><tspan x="-626.233" y="0">“We eliminate the inconvenience and time-consuming </tspan><tspan x="-477.901" y="90">project managing by offering your clients </tspan><tspan x="-442.784" y="180">outstanding 3D visualization services.”</tspan></text></g></svg>